<?xml version="1.0" encoding="utf-8"?>
<!-- Generator: Adobe Illustrator 26.3.1, SVG Export Plug-In . SVG Version: 6.00 Build 0)  -->
<svg version="1.1" id="Layer_1" xmlns="http://www.w3.org/2000/svg" xmlns:xlink="http://www.w3.org/1999/xlink" x="0px" y="0px"
	 viewBox="0 0 512 512" style="enable-background:new 0 0 512 512;" xml:space="preserve">
<style type="text/css">
	.st0{fill:#262626;}
	.st1{fill-rule:evenodd;clip-rule:evenodd;fill:#51B53C;}
</style>
<g>
	<path class="st0" d="M405,227.2c0,0.4-0.2,0.8-0.3,1.2c-0.1,0.4-0.3,0.8-0.5,1.2c-0.2,0.7-0.3,1.5-0.4,2.2
		c-0.1,0.9-0.1,1.8-0.1,2.8v0.1c0,0.2,0,0.3,0,0.5v139.9c0.8,2,1.7,3.7,2.7,5.1c1,1.5,2,2.6,3.2,3.5l0,0c1,0.8,2.1,1.4,3.4,1.7
		c1.2,0.4,2.7,0.5,4.2,0.5c10.8-0.9,31-0.7,41.8,0c2.8,0.1,5.2-0.2,7.2-0.9c2-0.7,3.6-1.8,4.9-3.3l0.1-0.1c1.5-1.7,2.7-4.1,3.6-6.9
		c1-3,1.6-6.5,1.9-10.6c0-35,8.7-89.8,12.2-126.6c0-0.2,0-0.5,0-0.8c0.4-3.3,0.2-6-0.4-8.2c-0.6-2-1.7-3.5-3.1-4.7
		c-1.8-1.4-4.2-2.4-7.2-3c-3.1-0.7-6.9-1-11.1-1l-0.6,0h-45.3c-0.1,0-0.2,0-0.4,0c-3.2,0-5.9,0.3-8.1,1c-2.2,0.6-4,1.5-5.3,2.7
		c-0.5,0.5-1,1-1.4,1.6C405.6,225.8,405.3,226.5,405,227.2L405,227.2z M357.2,383c-0.5-0.5-1-1.2-1.4-1.8c-0.4-0.7-0.7-1.4-0.8-2.1
		l-64.5-116c-3.3-5.5-6.4-8.4-9.2-9.3c-2.7-0.9-5.3-0.1-7.9,1.5c-2.1,1.2-4.3,2.9-6.6,4.8c-2.4,2-4.7,4.1-6.9,6.2l-0.4,0.4
		c-2.7,2.5-5.4,4.9-7.7,6.8l-11.1,9.2l-0.2,0.2c-4.1,3.2-8.4,5.8-12.8,7.6c-4.7,1.9-9.4,3.1-14,3.5c-3,0.2-5.9,0.2-8.8-0.2
		s-5.7-1.1-8.3-2.1c-2.7-1-5.4-2.4-7.7-4.1c-2.3-1.6-4.4-3.6-6.2-5.8c-2-2.5-3.7-5.3-4.9-8.5c-1.2-3-1.9-6.3-2.2-9.9
		c0-0.2,0-0.3,0-0.5c0-0.9,0.1-1.9,0.4-2.7c0.3-1,0.8-2,1.6-2.9l32.2-38.3c4.2,3.8,8.7,7.3,13.3,10.5L193,265c0.2,1,0.6,2,1,2.8
		c0.5,1.2,1.2,2.2,1.9,3.2l0,0.1c0.8,1,1.8,1.9,2.8,2.6c1.1,0.8,2.4,1.5,3.7,2c1.4,0.5,3,0.9,4.6,1.1h0c1.6,0.2,3.3,0.2,5.1,0.1
		c3-0.2,6.1-1,9.1-2.3c2.9-1.2,5.8-2.9,8.5-5.1l11.1-9.2c2.3-1.9,4.4-3.7,6.3-5.5l1.3-1.2c2.6-2.4,5.2-4.7,7.8-6.9
		c0.5-0.4,0.9-0.8,1.4-1.2c7.2-2.8,14.1-6.1,20.7-9.8c2.2-0.2,4.4,0,6.7,0.6c6.8,1.7,13.4,7.2,20,18.1
		c21.9,36.3,42.6,76.8,63.4,114.1h18.4V235.2c0-0.2,0-0.4,0-0.7c0-1,0-2,0.1-3c0-0.6,0.1-1.2,0.2-1.8l-21.3-14.1
		c-1.5-1-3.1-2.1-4.7-3.2l-5.4-3.8c-9.5-6.7-19.3-13.5-29.5-17.8c3-4.7,5.8-9.7,8.3-14.9c3.6,1.6,7.1,3.4,10.5,5.4
		c7.2,4.2,14.1,8.9,20.8,13.7l0.4,0.3c2.9,2,5.7,4,9.1,6.2c6.1,4,12.2,8.2,18.3,12.2l0.5-0.6c0.6-0.7,1.2-1.3,2-2l0,0
		c3-2.7,6.6-4.7,10.8-6c4.1-1.3,8.7-1.9,13.9-2c0.1,0,0.2,0,0.4,0c14.9,0.7,31.4-1,46,0c5.9,0,11.2,0.5,16,1.7
		c4.9,1.2,9.2,3.1,12.6,5.8c4,3,6.8,6.9,8.5,11.6c1.7,4.6,2.2,10.1,1.5,16.5c-5.3,41.3-8.2,85.1-12.3,126.8
		c-0.5,5.9-1.5,11.1-3.1,15.7c-1.6,4.6-3.8,8.5-6.6,11.8c-3,3.5-6.7,6.2-11,7.8c-4.2,1.7-9,2.4-14.4,2.2c-13.4,0-27,0.3-40.3,0
		c-3.6,0.2-7-0.2-10.1-1.2c-3.2-1-6.2-2.6-8.9-4.7l-0.1-0.1c-1.9-1.6-3.7-3.4-5.2-5.5c-1.4-1.8-2.6-3.7-3.7-5.9h-13.3
		c0.7,2.6,1,5.1,1,7.6c0.1,3.5-0.5,6.9-1.5,10c-1,3.1-2.5,6-4.3,8.5c-1.9,2.7-4.2,5.1-6.8,7.1l-0.1,0.1c-2.5,1.9-5.2,3.5-8,4.8
		c-2.9,1.2-5.9,2.2-9,2.7c-3.1,0.5-6.3,0.6-9.5,0.3c-2.6-0.3-5.2-0.9-7.8-1.8c-3.1,3.1-6.2,5.7-9.4,7.7c-3.6,2.3-7.4,4-11.2,5
		c-3.8,1.1-7.7,1.5-11.5,1.3c-3.5-0.2-6.9-0.8-10.3-1.9c-3.4,3.6-6.9,6.6-10.7,8.9c-4.1,2.5-8.4,4.3-12.9,5.3
		c-4.6,1-9.3,1.2-14.2,0.5c-4.5-0.7-9.1-2-13.8-4.1c-1.3,1-2.6,1.8-4,2.6c-1.7,1-3.4,1.8-5.2,2.6c-2.5,1-5,1.8-7.7,2.3
		c-2.6,0.5-5.3,0.7-8,0.6c-6.4-0.2-11.9-1.2-16.6-3c-4.7-1.8-8.7-4.3-12.2-7.5c-3.3-3-6.1-6.3-8.6-10c-2.5-3.6-4.8-7.6-7.2-11.8
		l-26.9-47h-18.6c-0.6,2.6-1.4,5.1-2.3,7.3c-1.2,2.7-2.6,5.3-4.3,7.5c-2.9,3.8-6.5,6.7-10.9,8.6c-4.3,1.9-9.3,2.8-15.1,2.7H52.3
		c-4.8,0.7-9.4,0.5-13.5-0.8c-4.2-1.4-8-4-11.4-7.8c-2.9-3.4-5.3-7.7-7.2-13.2c-1.9-5.4-3.2-11.9-4-19.5l-0.1-0.7L6.7,241.2
		c-1-6.6-0.9-12.3,0.1-17.1c1-5,3-9.1,5.7-12.5c2.8-3.4,6.4-5.9,10.5-7.5c4-1.6,8.6-2.5,13.6-2.7l0.5,0h0.5h49.2c0.2,0,0.3,0,0.4,0
		c4.6,0,8.9,0.3,12.9,1.2c4.2,0.9,7.9,2.4,11.1,4.5c2.6,1.7,4.9,3.7,6.8,6.2c1.6,2.1,2.8,4.5,3.8,7.1h38c4.9-3.3,9.7-6.2,14.5-8.8
		c5-2.6,10.1-4.8,15.4-6.5l0.1,0c1.8-0.5,3.6-1,5.5-1.5c4.3,5.5,9,10.4,14.1,15c-1.8,0.1-3.5,0.3-5.2,0.5c-3.2,0.5-6.3,1.2-9.3,2.1
		c-4.6,1.4-9,3.4-13.5,5.8c-4.5,2.4-9.1,5.3-13.8,8.6c-0.7,0.5-1.5,1-2.4,1.2c-0.9,0.3-1.8,0.5-2.7,0.5h-38.7V312l0.2,47.1h21.7
		c1.5,0,3,0.4,4.3,1.2c1.2,0.7,2.3,1.8,3.1,3.1l29.4,51.2c2.1,3.7,4.1,7.2,6.2,10.2c2,3,4,5.5,6.2,7.5c2,1.8,4.4,3.3,7.3,4.4l0.1,0
		c2.9,1,6.4,1.7,10.6,1.8c1.5,0,3.1-0.1,4.6-0.3c1.5-0.2,2.9-0.7,4.2-1.2c0.8-0.3,1.7-0.8,2.6-1.2c0.4-0.2,0.7-0.5,1.1-0.7
		c-6.1-11.4-12.3-22.7-18.3-34.1c-1.1-2-1.2-4.3-0.6-6.4c0.6-2,2-3.9,4.1-5l0.2-0.1c2-1,4.2-1.2,6.2-0.5c2,0.6,3.8,2,5,4
		c6.8,12.7,13.6,25.5,20.4,38.2c3.5,1.7,6.8,2.8,9.9,3.4c3.2,0.6,6.3,0.6,9.2,0c2.6-0.6,5.2-1.7,7.7-3.2c2.2-1.4,4.3-3.2,6.4-5.3
		l-29.2-45.4c-1.2-2-1.6-4.2-1.1-6.4c0.5-2.1,1.7-4,3.7-5.3c2-1.2,4.2-1.6,6.4-1.1c2.1,0.5,4,1.7,5.3,3.7l31.1,48.8
		c2.4,0.9,4.7,1.5,6.9,1.7c2.4,0.2,4.8,0,7.1-0.6l0.1,0c2.2-0.6,4.4-1.6,6.7-3.1c1.9-1.2,3.8-2.8,5.8-4.7L290.4,361
		c-1-2-1.2-4.3-0.6-6.4c0.6-2,2-3.9,4-5l0.2-0.1c2-1,4.3-1.2,6.4-0.6s3.8,2,5,4l29.3,55.1c1.5,0.8,3.1,1.3,4.7,1.6c2,0.3,4,0.3,6,0
		c1.7-0.3,3.3-0.8,4.9-1.5c1.6-0.7,3.1-1.6,4.5-2.6s2.5-2.2,3.4-3.6c0.9-1.2,1.6-2.6,2-4l0,0c0.5-1.6,0.7-3.4,0.6-5.2
		c-0.1-1.8-0.6-3.7-1.4-5.7L357.2,383L357.2,383z M64.5,332.4c3,0,5.7,1.2,7.6,3.2c2,2,3.2,4.7,3.2,7.6c0,3-1.2,5.7-3.2,7.6L72,351
		c-2,1.9-4.6,3-7.5,3c-3,0-5.7-1.2-7.6-3.2s-3.2-4.7-3.2-7.6c0-3,1.2-5.7,3.2-7.6C58.9,333.6,61.6,332.4,64.5,332.4L64.5,332.4z
		 M445.9,332.4c3,0,5.7,1.2,7.6,3.2s3.2,4.7,3.2,7.6c0,3-1.2,5.7-3.2,7.6s-4.6,3.2-7.6,3.2c-3,0-5.7-1.2-7.6-3.2s-3.2-4.7-3.2-7.6
		c0-3,1.2-5.7,3.2-7.6l0.1-0.1C440.3,333.6,443,332.4,445.9,332.4L445.9,332.4z M106.8,296.4l-0.2-67.9c-0.3-1.8-0.8-3.3-1.6-4.5
		c-0.7-1.2-1.7-2.2-2.8-2.9c-1.7-1.1-3.7-1.8-6.2-2.3c-2.5-0.5-5.4-0.7-8.6-0.7c-0.1,0-0.3,0-0.5,0c-16.4,0-33.2,0.3-49.6,0
		c-2.8,0.1-5.2,0.5-7.2,1.2c-1.9,0.7-3.5,1.6-4.5,2.9l0,0c-1.2,1.4-2,3.3-2.3,6c-0.4,2.8-0.3,6.3,0.3,10.7
		c4.3,32.4,9.2,87.9,9.7,120.3c0.6,6,1.6,10.9,2.8,14.8c1.2,3.8,2.7,6.6,4.4,8.6c1.2,1.4,2.7,2.3,4.3,2.8c1.7,0.5,3.6,0.5,5.7,0.1
		c0.2,0,0.5-0.1,0.7-0.1l0.3,0c0.2,0,0.3,0,0.5,0H89c0.2,0,0.5,0,0.9,0c2.9,0,5.4-0.4,7.4-1.2c2-0.8,3.5-2,4.7-3.5
		c1.5-1.9,2.6-4.4,3.4-7.4c0.8-3,1.2-6.6,1.4-10.6l0-0.4v-65.1C106.6,296.9,106.7,296.6,106.8,296.4L106.8,296.4z"/>
	<path class="st1" d="M256.8,56.4c28,17.8,53.3,26.2,75.1,24.2c3.8,76.8-24.5,122.1-74.8,141.1c-0.3-0.1-0.6-0.2-1-0.4
		c-0.3,0.1-0.6,0.2-1,0.4c-50.3-18.9-78.6-64.2-74.8-141.1c21.7,2,47.1-6.4,75.1-24.2l0,0l0.7,0.5L256.8,56.4L256.8,56.4L256.8,56.4
		L256.8,56.4z M211.2,132.1l16.4-0.2l1.2,0.3c3.3,1.9,6.4,4.1,9.4,6.6c2.1,1.8,4.1,3.7,6,5.8c5.9-9.4,12.1-18.1,18.8-26.1
		c7.2-8.7,11.8-13.6,19.8-20.8l1.6-0.6h17.9l-3.6,4c-11.1,12.3-18,21.9-27.1,35c-9.1,13.1-17.2,26.7-24.5,40.7l-2.2,4.3l-2.1-4.4
		c-3.8-8.2-8.4-15.7-13.8-22.4c-5.5-6.7-11.8-12.7-19.2-17.7L211.2,132.1L211.2,132.1L211.2,132.1L211.2,132.1L211.2,132.1z"/>
</g>
</svg>
